<?xml version="1.0" encoding="UTF-8" standalone="no"?>
<!-- Created with Inkscape (http://www.inkscape.org/) -->

<svg
   xmlns:dc="http://purl.org/dc/elements/1.1/"
   xmlns:cc="http://creativecommons.org/ns#"
   xmlns:rdf="http://www.w3.org/1999/02/22-rdf-syntax-ns#"
   xmlns:svg="http://www.w3.org/2000/svg"
   xmlns="http://www.w3.org/2000/svg"
   xmlns:sodipodi="http://sodipodi.sourceforge.net/DTD/sodipodi-0.dtd"
   xmlns:inkscape="http://www.inkscape.org/namespaces/inkscape"
   id="svg2"
   version="1.1"
   inkscape:version="0.91 r13725"
   xml:space="preserve"
   width="765"
   height="990"
   viewBox="0 0 765 990"
   sodipodi:docname="Fast Delivery.svg"><metadata
     id="metadata8"><rdf:RDF><cc:Work
         rdf:about=""><dc:format>image/svg+xml</dc:format><dc:type
           rdf:resource="http://purl.org/dc/dcmitype/StillImage" /><dc:title></dc:title></cc:Work></rdf:RDF></metadata><defs
     id="defs6"><clipPath
       clipPathUnits="userSpaceOnUse"
       id="clipPath18"><path
         d="M 0,792 612,792 612,0 0,0 0,792 Z"
         id="path20"
         inkscape:connector-curvature="0" /></clipPath><clipPath
       clipPathUnits="userSpaceOnUse"
       id="clipPath42"><path
         d="M 0,792 612,792 612,0 0,0 0,792 Z"
         id="path44"
         inkscape:connector-curvature="0" /></clipPath><clipPath
       clipPathUnits="userSpaceOnUse"
       id="clipPath64"><path
         d="M 0,792 612,792 612,0 0,0 0,792 Z"
         id="path66"
         inkscape:connector-curvature="0" /></clipPath><clipPath
       clipPathUnits="userSpaceOnUse"
       id="clipPath86"><path
         d="M 0,792 612,792 612,0 0,0 0,792 Z"
         id="path88"
         inkscape:connector-curvature="0" /></clipPath></defs><sodipodi:namedview
     pagecolor="#ffffff"
     bordercolor="#666666"
     borderopacity="1"
     objecttolerance="10"
     gridtolerance="10"
     guidetolerance="10"
     inkscape:pageopacity="0"
     inkscape:pageshadow="2"
     inkscape:window-width="1366"
     inkscape:window-height="705"
     id="namedview4"
     showgrid="false"
     inkscape:zoom="0.95353535"
     inkscape:cx="379.35381"
     inkscape:cy="858.17303"
     inkscape:window-x="-8"
     inkscape:window-y="-8"
     inkscape:window-maximized="1"
     inkscape:current-layer="g10" /><g
     id="g10"
     inkscape:groupmode="layer"
     inkscape:label="Fast Delivery"
     transform="matrix(1.25,0,0,-1.25,0,990)"><path
       d="m 597.549,522.996 -583.098,0 0,253.99 583.098,0 0,-253.99 z"
       style="fill:#ffffff;fill-opacity:1;fill-rule:nonzero;stroke:none"
       id="path12"
       inkscape:connector-curvature="0"
       inkscape:export-xdpi="123.47838"
       inkscape:export-ydpi="123.47838" /><g
       id="g14"><g
         id="g16"
         clip-path="url(#clipPath18)"><g
           id="g22"
           transform="translate(291.6758,659.6021)"><path
             d="m 0,0 c -2.641,-5.077 -7.952,-8.546 -14.069,-8.546 l -23.671,0 c -1.272,0 -2.312,1.04 -2.312,2.311 0,1.27 1.04,2.311 2.312,2.311 l 12.485,0 c -1.152,1.147 -2.129,2.469 -2.888,3.924 l -9.551,0 c -3.67,0 -6.659,2.988 -6.659,6.659 l 0,4.117 -19.824,0 c -1.27,0 -2.31,1.04 -2.31,2.311 0,1.27 1.04,2.31 2.31,2.31 l 28.421,0 c 1.271,0 2.311,-1.04 2.311,-2.31 0,-1.271 -1.04,-2.311 -2.311,-2.311 l -4.056,0 0,-4.117 c 0,-1.165 0.954,-2.118 2.118,-2.118 l 8.01,0 c -1.705,9.695 5.738,18.62 15.615,18.62 9.875,0 17.319,-8.925 15.61,-18.62 l 62.82,0 c -1.708,9.695 5.737,18.62 15.612,18.62 9.877,0 17.32,-8.925 15.612,-18.62 l 4.943,0 c 3.634,0 6.053,1.758 6.053,6.117 l 0,0.694 -1.058,0 c -0.668,0 -1.21,0.544 -1.21,1.211 l 0,6.028 c 0,0.665 0.542,1.21 1.21,1.21 l 1.046,0 C 106.063,25.163 84.441,32.266 72.782,34.303 66.015,41.281 41.086,56.752 29.398,56.752 l -59.147,0 c -0.686,-0.184 -1.515,-1.785 -2.369,-4.391 l 16.694,0 c 1.271,0 2.311,-1.038 2.311,-2.31 0,-1.27 -1.04,-2.31 -2.311,-2.31 l -38.539,0 c -1.27,0 -2.309,1.04 -2.309,2.31 0,1.271 1.039,2.31 2.309,2.31 l 17.084,0 c 0.983,3.298 2.409,7.826 5.956,8.776 l 1.174,0.155 59.147,0 c 10.856,0 28.498,-10.203 37.732,-16.632 2.609,-1.817 5.46,-3.902 7.841,-6.143 4.599,-0.883 9.255,-2.157 13.687,-3.574 4.662,-1.49 9.543,-3.281 13.879,-5.564 3.532,-1.858 8.138,-4.761 8.552,-9.152 0.405,-4.307 0.032,-5.435 0.032,-9.569 C 111.121,4.124 107.022,0 100.528,0 L 94.045,0 C 91.404,-5.078 86.092,-8.546 79.973,-8.546 l -23.885,0 c -1.271,0 -2.312,1.04 -2.312,2.311 0,1.27 1.041,2.311 2.312,2.311 l 12.7,0 C 67.637,-2.777 66.659,-1.455 65.901,0 L 0,0 Z m 78.623,-3.924 c -5.611,0.666 -9.963,5.441 -9.963,11.231 0,6.248 5.066,11.314 11.313,11.314 6.25,0 11.313,-5.066 11.313,-11.314 0,-5.929 -4.558,-10.791 -10.362,-11.272 -0.637,-0.053 -1.619,0.041 -2.301,0.041 m -94.044,0 c -5.61,0.666 -9.963,5.441 -9.963,11.231 0,6.248 5.066,11.314 11.315,11.314 6.247,0 11.311,-5.066 11.311,-11.314 0,-5.807 -4.378,-10.594 -10.011,-11.238 -0.786,-0.09 -1.835,0.007 -2.652,0.007 m -9.725,47.044 -35.626,0 c -1.271,0 -2.311,-1.04 -2.311,-2.31 0,-1.27 1.04,-2.31 2.311,-2.31 l 35.626,0 c 1.27,0 2.31,1.04 2.31,2.31 0,1.27 -1.04,2.31 -2.31,2.31 m -42.562,0 -12.612,0 c -1.271,0 -2.31,-1.04 -2.31,-2.31 0,-1.27 1.039,-2.31 2.31,-2.31 l 12.612,0 c 1.271,0 2.311,1.04 2.311,2.31 0,1.27 -1.04,2.31 -2.311,2.31 m 18.71,-9.241 -23.883,0 c -1.271,0 -2.311,-1.039 -2.311,-2.31 0,-1.27 1.04,-2.31 2.311,-2.31 l 23.883,0 c 1.271,0 2.31,1.04 2.31,2.31 0,1.271 -1.039,2.31 -2.31,2.31 m 41.791,0 -34.522,0 c -1.27,0 -2.309,-1.039 -2.309,-2.31 0,-1.27 1.039,-2.31 2.309,-2.31 l 34.522,0 c 1.27,0 2.31,1.04 2.31,2.31 0,1.271 -1.04,2.31 -2.31,2.31 m -24.893,-9.241 -14.296,0 c -1.27,0 -2.311,-1.04 -2.311,-2.31 0,-1.271 1.041,-2.309 2.311,-2.309 l 14.296,0 c 1.271,0 2.311,1.038 2.311,2.309 0,1.27 -1.04,2.31 -2.311,2.31 m -21.51,0 -6.27,0 c -1.27,0 -2.31,-1.04 -2.31,-2.31 0,-1.271 1.04,-2.309 2.31,-2.309 l 6.27,0 c 1.272,0 2.31,1.038 2.31,2.309 0,1.27 -1.038,2.31 -2.31,2.31 m 39.541,-12.071 c -2.909,0 -5.261,-2.353 -5.261,-5.26 0,-2.906 2.352,-5.259 5.261,-5.259 2.905,0 5.258,2.353 5.258,5.259 0,2.907 -2.353,5.26 -5.258,5.26 m 94.042,0 c -2.907,0 -5.257,-2.353 -5.257,-5.26 0,-2.906 2.35,-5.259 5.257,-5.259 2.908,0 5.26,2.353 5.26,5.259 0,2.907 -2.352,5.26 -5.26,5.26 M 66.522,35.376 C 56.947,42.879 37.975,53.422 29.398,53.422 l -2.584,0 0,-33.045 c 0,-0.964 1.468,-0.964 1.468,0 l 0,10.74 35.108,0 0,3.05 c 0,0.665 0.544,1.209 1.211,1.209 l 1.921,0 z m -34.295,-7.945 7.389,0 c 1.068,0 0.907,-1.178 0.907,-1.803 0,-0.499 -0.408,-0.908 -0.907,-0.908 l -7.389,0 c -1.067,0 -0.91,1.178 -0.91,1.803 0,0.499 0.41,0.908 0.91,0.908"
             style="fill:#6bba0d;fill-opacity:1;fill-rule:evenodd;stroke:none"
             id="path24"
             inkscape:connector-curvature="0" /></g></g></g><text
       transform="scale(1,-1)"
       style="font-variant:normal;font-weight:normal;font-stretch:normal;font-size:55.98059845px;font-family:'Titillium Web';-inkscape-font-specification:TitilliumWeb-Regular;writing-mode:lr-tb;opacity:0.97000002;fill:#6bba0d;fill-opacity:1;fill-rule:nonzero;stroke:none"
       id="text26"
       x="171.25941"
       y="-594.66498"><tspan
         sodipodi:role="line"
         id="tspan30"
         x="171.25941"
         y="-594.66498">Fleet<tspan
   style="fill:#000000;fill-opacity:1"
   id="tspan4248">Club.io</tspan></tspan></text>
<text
       transform="matrix(1,0,0,-1,254.1519,579.0898)"
       style="font-variant:normal;font-weight:normal;font-stretch:normal;font-size:10.51809978px;font-family:'Titillium Web';-inkscape-font-specification:TitilliumWeb-Regular;writing-mode:lr-tb;fill:#000000;fill-opacity:1;fill-rule:nonzero;stroke:none"
       id="text32"><tspan
         sodipodi:role="line"
         id="tspan34"
         x="0"
         y="0" /></text>
<path
       d="m 596.226,269.005 -291.549,0 0,253.99 291.549,0 0,-253.99 z"
       style="fill:#000000;fill-opacity:1;fill-rule:nonzero;stroke:none"
       id="path36"
       inkscape:connector-curvature="0" /><g
       id="g38"><g
         id="g40"
         clip-path="url(#clipPath42)"><g
           id="g46"
           transform="translate(441.8018,404.2358)"><path
             d="m 0,0 c -1.958,-3.763 -5.895,-6.335 -10.431,-6.335 l -17.547,0 c -0.943,0 -1.712,0.771 -1.712,1.713 0,0.941 0.769,1.713 1.712,1.713 l 9.255,0 c -0.853,0.85 -1.577,1.83 -2.14,2.909 l -7.08,0 c -2.721,0 -4.937,2.215 -4.937,4.937 l 0,3.052 -14.696,0 c -0.942,0 -1.713,0.77 -1.713,1.713 0,0.942 0.771,1.712 1.713,1.712 l 21.069,0 c 0.942,0 1.713,-0.77 1.713,-1.712 0,-0.942 -0.771,-1.713 -1.713,-1.713 l -3.007,0 0,-3.052 c 0,-0.864 0.708,-1.571 1.571,-1.571 l 5.937,0 c -1.264,7.187 4.254,13.803 11.575,13.803 7.322,0 12.84,-6.616 11.573,-13.803 l 46.57,0 c -1.267,7.187 4.252,13.803 11.572,13.803 7.322,0 12.84,-6.616 11.574,-13.803 l 3.664,0 c 2.695,0 4.488,1.304 4.488,4.535 l 0,0.515 -0.784,0 c -0.496,0 -0.897,0.403 -0.897,0.897 l 0,4.469 c 0,0.493 0.401,0.897 0.897,0.897 l 0.775,0 C 78.626,18.654 62.598,23.919 53.954,25.43 48.938,30.603 30.457,42.071 21.793,42.071 l -43.846,0 c -0.509,-0.136 -1.124,-1.323 -1.757,-3.255 l 12.375,0 c 0.943,0 1.713,-0.77 1.713,-1.712 0,-0.942 -0.77,-1.713 -1.713,-1.713 l -28.569,0 c -0.941,0 -1.712,0.771 -1.712,1.713 0,0.942 0.771,1.712 1.712,1.712 l 12.664,0 c 0.729,2.445 1.787,5.802 4.416,6.506 l 0.871,0.115 43.846,0 c 8.048,0 21.125,-7.563 27.971,-12.33 1.934,-1.346 4.048,-2.893 5.812,-4.553 3.41,-0.656 6.862,-1.599 10.148,-2.65 3.456,-1.105 7.074,-2.432 10.288,-4.124 2.619,-1.379 6.033,-3.53 6.34,-6.785 0.3,-3.193 0.023,-4.029 0.023,-7.094 C 82.375,3.057 79.337,0 74.522,0 L 69.717,0 C 67.759,-3.764 63.82,-6.335 59.284,-6.335 l -17.706,0 c -0.941,0 -1.713,0.771 -1.713,1.713 0,0.941 0.772,1.713 1.713,1.713 l 9.415,0 C 50.14,-2.059 49.415,-1.079 48.854,0 L 0,0 Z m 58.284,-2.909 c -4.16,0.493 -7.386,4.034 -7.386,8.326 0,4.632 3.755,8.387 8.386,8.387 4.634,0 8.388,-3.755 8.388,-8.387 0,-4.395 -3.38,-8 -7.683,-8.356 -0.471,-0.04 -1.2,0.03 -1.705,0.03 m -69.717,0 c -4.159,0.493 -7.384,4.034 -7.384,8.326 0,4.632 3.754,8.387 8.386,8.387 4.632,0 8.386,-3.755 8.386,-8.387 0,-4.305 -3.245,-7.854 -7.42,-8.331 -0.584,-0.066 -1.362,0.005 -1.968,0.005 m -7.209,34.875 -26.41,0 c -0.942,0 -1.713,-0.771 -1.713,-1.713 0,-0.941 0.771,-1.712 1.713,-1.712 l 26.41,0 c 0.943,0 1.713,0.771 1.713,1.712 0,0.942 -0.77,1.713 -1.713,1.713 m -31.55,0 -9.351,0 c -0.941,0 -1.713,-0.771 -1.713,-1.713 0,-0.941 0.772,-1.712 1.713,-1.712 l 9.351,0 c 0.942,0 1.712,0.771 1.712,1.712 0,0.942 -0.77,1.713 -1.712,1.713 m 13.869,-6.851 -17.705,0 c -0.943,0 -1.713,-0.77 -1.713,-1.712 0,-0.942 0.77,-1.713 1.713,-1.713 l 17.705,0 c 0.942,0 1.713,0.771 1.713,1.713 0,0.942 -0.771,1.712 -1.713,1.712 m 30.98,0 -25.592,0 c -0.941,0 -1.711,-0.77 -1.711,-1.712 0,-0.942 0.77,-1.713 1.711,-1.713 l 25.592,0 c 0.943,0 1.713,0.771 1.713,1.713 0,0.942 -0.77,1.712 -1.713,1.712 m -18.454,-6.85 -10.598,0 c -0.941,0 -1.712,-0.771 -1.712,-1.713 0,-0.942 0.771,-1.712 1.712,-1.712 l 10.598,0 c 0.943,0 1.713,0.77 1.713,1.712 0,0.942 -0.77,1.713 -1.713,1.713 m -15.946,0 -4.647,0 c -0.942,0 -1.713,-0.771 -1.713,-1.713 0,-0.942 0.771,-1.712 1.713,-1.712 l 4.647,0 c 0.943,0 1.713,0.77 1.713,1.712 0,0.942 -0.77,1.713 -1.713,1.713 m 29.312,-8.949 c -2.155,0 -3.899,-1.744 -3.899,-3.899 0,-2.154 1.744,-3.898 3.899,-3.898 2.155,0 3.899,1.744 3.899,3.898 0,2.155 -1.744,3.899 -3.899,3.899 m 69.715,0 c -2.154,0 -3.896,-1.744 -3.896,-3.899 0,-2.154 1.742,-3.898 3.896,-3.898 2.156,0 3.901,1.744 3.901,3.898 0,2.155 -1.745,3.899 -3.901,3.899 M 49.313,26.225 C 42.216,31.787 28.15,39.603 21.793,39.603 l -1.915,0 0,-24.497 c 0,-0.715 1.088,-0.715 1.088,0 l 0,7.961 26.025,0 0,2.261 c 0,0.493 0.404,0.897 0.898,0.897 l 1.424,0 z m -25.423,-5.89 5.477,0 c 0.792,0 0.673,-0.873 0.673,-1.336 0,-0.371 -0.303,-0.674 -0.673,-0.674 l -5.477,0 c -0.791,0 -0.674,0.874 -0.674,1.338 0,0.369 0.303,0.672 0.674,0.672"
             style="fill:#6bba0d;fill-opacity:1;fill-rule:evenodd;stroke:none"
             id="path48"
             inkscape:connector-curvature="0" /></g></g></g><text
       transform="matrix(1,0,0,-1,343.3213,355.417)"
       style="font-variant:normal;font-weight:normal;font-stretch:normal;font-size:41.4992981px;font-family:'Titillium Web';-inkscape-font-specification:TitilliumWeb-Regular;writing-mode:lr-tb;fill:#ffffff;fill-opacity:1;fill-rule:nonzero;stroke:none"
       id="text50"><tspan
         x="0 21.828632 42.619781 61.916954 76.483208 103.25026 124.20741 133.79375 142.8821 162.84325 183.8004 198.15916"
         y="0"
         sodipodi:role="line"
         id="tspan52">FastDelivery</tspan></text>
<text
       transform="matrix(1,0,0,-1,413.9854,344.5498)"
       style="font-variant:normal;font-weight:normal;font-stretch:normal;font-size:7.79729986px;font-family:'Titillium Web';-inkscape-font-specification:TitilliumWeb-Regular;writing-mode:lr-tb;fill:#ffffff;fill-opacity:1;fill-rule:nonzero;stroke:none"
       id="text54"><tspan
         x="0 5.021461 10.94741 18.276871 23.680401 29.107321 35.158024 40.132702 42.627838 47.508949 52.935871 58.518738 63.033375 65.731239 71.781944"
         y="0"
         sodipodi:role="line"
         id="tspan56">COMPANY TAGLINE</tspan></text>
<path
       d="m 306,269.005 -291.549,0 0,253.99 291.549,0 0,-253.99 z"
       style="fill:#6bba0d;fill-opacity:1;fill-rule:nonzero;stroke:none"
       id="path58"
       inkscape:connector-curvature="0" /><g
       id="g60"><g
         id="g62"
         clip-path="url(#clipPath64)"><g
           id="g68"
           transform="translate(151.9058,404.2363)"><path
             d="m 0,0 c -1.958,-3.764 -5.895,-6.335 -10.431,-6.335 l -17.547,0 c -0.943,0 -1.712,0.771 -1.712,1.713 0,0.941 0.769,1.713 1.712,1.713 l 9.255,0 c -0.853,0.85 -1.577,1.83 -2.14,2.909 l -7.08,0 c -2.721,0 -4.937,2.215 -4.937,4.937 l 0,3.051 -14.696,0 c -0.942,0 -1.713,0.772 -1.713,1.713 0,0.943 0.771,1.713 1.713,1.713 l 21.069,0 c 0.942,0 1.713,-0.77 1.713,-1.713 0,-0.941 -0.771,-1.713 -1.713,-1.713 l -3.007,0 0,-3.051 c 0,-0.865 0.708,-1.571 1.571,-1.571 l 5.937,0 c -1.264,7.187 4.254,13.803 11.575,13.803 7.322,0 12.84,-6.616 11.573,-13.803 l 46.57,0 c -1.267,7.187 4.252,13.803 11.572,13.803 7.322,0 12.84,-6.616 11.574,-13.803 l 3.664,0 c 2.695,0 4.488,1.304 4.488,4.534 l 0,0.516 -0.784,0 c -0.496,0 -0.897,0.403 -0.897,0.897 l 0,4.468 c 0,0.494 0.401,0.898 0.897,0.898 l 0.775,0 C 78.626,18.653 62.598,23.919 53.954,25.43 48.938,30.603 30.457,42.071 21.793,42.071 l -43.846,0 c -0.509,-0.136 -1.124,-1.323 -1.757,-3.255 l 12.375,0 c 0.943,0 1.713,-0.77 1.713,-1.712 0,-0.942 -0.77,-1.713 -1.713,-1.713 l -28.569,0 c -0.941,0 -1.712,0.771 -1.712,1.713 0,0.942 0.771,1.712 1.712,1.712 l 12.664,0 c 0.729,2.445 1.787,5.801 4.416,6.506 l 0.871,0.115 43.846,0 c 8.048,0 21.125,-7.564 27.971,-12.33 1.934,-1.346 4.048,-2.893 5.812,-4.553 3.41,-0.656 6.862,-1.6 10.148,-2.65 3.456,-1.105 7.074,-2.432 10.288,-4.125 2.619,-1.378 6.033,-3.53 6.34,-6.785 0.3,-3.192 0.023,-4.028 0.023,-7.094 C 82.375,3.057 79.337,0 74.522,0 L 69.717,0 C 67.759,-3.764 63.82,-6.335 59.284,-6.335 l -17.706,0 c -0.941,0 -1.713,0.771 -1.713,1.713 0,0.941 0.772,1.713 1.713,1.713 l 9.415,0 C 50.14,-2.059 49.415,-1.079 48.854,0 L 0,0 Z m 58.284,-2.909 c -4.16,0.493 -7.386,4.034 -7.386,8.325 0,4.633 3.755,8.388 8.386,8.388 4.634,0 8.388,-3.755 8.388,-8.388 0,-4.395 -3.38,-7.998 -7.683,-8.355 -0.471,-0.04 -1.2,0.03 -1.705,0.03 m -69.717,0 c -4.159,0.493 -7.384,4.034 -7.384,8.325 0,4.633 3.754,8.388 8.386,8.388 4.632,0 8.386,-3.755 8.386,-8.388 0,-4.305 -3.245,-7.853 -7.42,-8.33 -0.584,-0.066 -1.362,0.005 -1.968,0.005 m -7.209,34.875 -26.41,0 c -0.942,0 -1.713,-0.772 -1.713,-1.713 0,-0.941 0.771,-1.713 1.713,-1.713 l 26.41,0 c 0.943,0 1.713,0.772 1.713,1.713 0,0.941 -0.77,1.713 -1.713,1.713 m -31.55,0 -9.351,0 c -0.941,0 -1.713,-0.772 -1.713,-1.713 0,-0.941 0.772,-1.713 1.713,-1.713 l 9.351,0 c 0.942,0 1.712,0.772 1.712,1.713 0,0.941 -0.77,1.713 -1.712,1.713 m 13.869,-6.851 -17.705,0 c -0.943,0 -1.713,-0.77 -1.713,-1.713 0,-0.941 0.77,-1.713 1.713,-1.713 l 17.705,0 c 0.942,0 1.713,0.772 1.713,1.713 0,0.943 -0.771,1.713 -1.713,1.713 m 30.98,0 -25.592,0 c -0.941,0 -1.711,-0.77 -1.711,-1.713 0,-0.941 0.77,-1.713 1.711,-1.713 l 25.592,0 c 0.943,0 1.713,0.772 1.713,1.713 0,0.943 -0.77,1.713 -1.713,1.713 m -18.454,-6.85 -10.598,0 c -0.941,0 -1.712,-0.772 -1.712,-1.713 0,-0.942 0.771,-1.712 1.712,-1.712 l 10.598,0 c 0.943,0 1.713,0.77 1.713,1.712 0,0.941 -0.77,1.713 -1.713,1.713 m -15.946,0 -4.647,0 c -0.942,0 -1.713,-0.772 -1.713,-1.713 0,-0.942 0.771,-1.712 1.713,-1.712 l 4.647,0 c 0.943,0 1.713,0.77 1.713,1.712 0,0.941 -0.77,1.713 -1.713,1.713 m 29.312,-8.949 c -2.155,0 -3.899,-1.744 -3.899,-3.9 0,-2.153 1.744,-3.897 3.899,-3.897 2.155,0 3.899,1.744 3.899,3.897 0,2.156 -1.744,3.9 -3.899,3.9 m 69.715,0 c -2.154,0 -3.896,-1.744 -3.896,-3.9 0,-2.153 1.742,-3.897 3.896,-3.897 2.156,0 3.901,1.744 3.901,3.897 0,2.156 -1.745,3.9 -3.901,3.9 M 49.313,26.225 C 42.216,31.787 28.15,39.603 21.793,39.603 l -1.915,0 0,-24.497 c 0,-0.715 1.088,-0.715 1.088,0 l 0,7.961 26.025,0 0,2.261 c 0,0.493 0.404,0.897 0.898,0.897 l 1.424,0 z m -25.423,-5.89 5.477,0 c 0.792,0 0.673,-0.873 0.673,-1.337 0,-0.37 -0.303,-0.673 -0.673,-0.673 l -5.477,0 c -0.791,0 -0.674,0.873 -0.674,1.337 0,0.37 0.303,0.673 0.674,0.673"
             style="fill:#ffffff;fill-opacity:1;fill-rule:evenodd;stroke:none"
             id="path70"
             inkscape:connector-curvature="0" /></g></g></g><text
       transform="matrix(1,0,0,-1,53.4253,355.417)"
       style="font-variant:normal;font-weight:normal;font-stretch:normal;font-size:41.4992981px;font-family:'Titillium Web';-inkscape-font-specification:TitilliumWeb-Regular;writing-mode:lr-tb;fill:#ffffff;fill-opacity:1;fill-rule:nonzero;stroke:none"
       id="text72"><tspan
         x="0 21.828632 42.619781 61.916954 76.483208 103.25026 124.20741 133.79375 142.8821 162.84325 183.8004 198.15916"
         y="0"
         sodipodi:role="line"
         id="tspan74">FastDelivery</tspan></text>
<text
       transform="matrix(1,0,0,-1,124.0894,344.5498)"
       style="font-variant:normal;font-weight:normal;font-stretch:normal;font-size:7.79729986px;font-family:'Titillium Web';-inkscape-font-specification:TitilliumWeb-Regular;writing-mode:lr-tb;fill:#ffffff;fill-opacity:1;fill-rule:nonzero;stroke:none"
       id="text76"><tspan
         x="0 5.021461 10.94741 18.276871 23.680401 29.107321 35.158024 40.132702 42.627838 47.508949 52.935871 58.518738 63.033375 65.731239 71.781944"
         y="0"
         sodipodi:role="line"
         id="tspan78">COMPANY TAGLINE</tspan></text>
<path
       d="m 597.549,15.014 -583.098,0 0,253.992 583.098,0 0,-253.992 z"
       style="fill:#e6e6e6;fill-opacity:1;fill-rule:nonzero;stroke:none"
       id="path80"
       inkscape:connector-curvature="0" /><g
       id="g82"><g
         id="g84"
         clip-path="url(#clipPath86)"><g
           id="g90"
           transform="translate(291.6753,151.6191)"><path
             d="m 0,0 c -2.641,-5.076 -7.951,-8.545 -14.069,-8.545 l -23.671,0 c -1.272,0 -2.311,1.039 -2.311,2.311 0,1.269 1.039,2.31 2.311,2.31 l 12.485,0 c -1.152,1.147 -2.128,2.469 -2.888,3.924 l -9.55,0 c -3.671,0 -6.66,2.988 -6.66,6.66 l 0,4.117 -19.824,0 c -1.27,0 -2.31,1.039 -2.31,2.311 0,1.27 1.04,2.31 2.31,2.31 l 28.421,0 c 1.271,0 2.311,-1.04 2.311,-2.31 0,-1.271 -1.04,-2.311 -2.311,-2.311 l -4.056,0 0,-4.117 c 0,-1.166 0.955,-2.119 2.119,-2.119 l 8.009,0 c -1.705,9.695 5.738,18.621 15.615,18.621 9.875,0 17.319,-8.926 15.61,-18.621 l 62.821,0 c -1.709,9.695 5.736,18.621 15.611,18.621 9.877,0 17.32,-8.926 15.611,-18.621 l 4.944,0 c 3.635,0 6.053,1.76 6.053,6.117 l 0,0.696 -1.057,0 c -0.668,0 -1.211,0.543 -1.211,1.209 l 0,6.029 c 0,0.666 0.543,1.211 1.211,1.211 l 1.045,0 C 106.063,25.164 84.442,32.268 72.782,34.305 66.014,41.282 41.086,56.753 29.399,56.753 l -59.147,0 c -0.687,-0.185 -1.516,-1.784 -2.369,-4.391 l 16.693,0 c 1.272,0 2.311,-1.038 2.311,-2.309 0,-1.272 -1.039,-2.311 -2.311,-2.311 l -38.539,0 c -1.269,0 -2.308,1.039 -2.308,2.311 0,1.269 1.039,2.309 2.308,2.309 l 17.084,0 c 0.983,3.298 2.41,7.826 5.956,8.777 l 1.175,0.154 59.147,0 c 10.855,0 28.496,-10.203 37.73,-16.632 2.61,-1.817 5.461,-3.902 7.842,-6.143 4.6,-0.883 9.254,-2.157 13.688,-3.574 4.662,-1.49 9.543,-3.281 13.879,-5.563 3.531,-1.86 8.136,-4.762 8.55,-9.153 0.407,-4.307 0.034,-5.435 0.034,-9.57 C 111.122,4.125 107.022,0 100.528,0 l -6.483,0 c -2.64,-5.076 -7.953,-8.545 -14.072,-8.545 l -23.885,0 c -1.271,0 -2.312,1.039 -2.312,2.311 0,1.269 1.041,2.31 2.312,2.31 l 12.7,0 C 67.637,-2.777 66.659,-1.455 65.901,0 L 0,0 Z m 78.624,-3.924 c -5.612,0.666 -9.963,5.442 -9.963,11.231 0,6.25 5.064,11.314 11.312,11.314 6.25,0 11.313,-5.064 11.313,-11.314 0,-5.928 -4.559,-10.789 -10.362,-11.272 -0.636,-0.053 -1.619,0.041 -2.3,0.041 m -94.045,0 c -5.61,0.666 -9.962,5.442 -9.962,11.231 0,6.25 5.065,11.314 11.314,11.314 6.247,0 11.311,-5.064 11.311,-11.314 0,-5.807 -4.377,-10.592 -10.01,-11.237 -0.787,-0.09 -1.836,0.006 -2.653,0.006 m -9.725,47.045 -35.626,0 c -1.271,0 -2.311,-1.04 -2.311,-2.31 0,-1.27 1.04,-2.311 2.311,-2.311 l 35.626,0 c 1.271,0 2.31,1.041 2.31,2.311 0,1.27 -1.039,2.31 -2.31,2.31 m -42.561,0 -12.613,0 c -1.27,0 -2.31,-1.04 -2.31,-2.31 0,-1.27 1.04,-2.311 2.31,-2.311 l 12.613,0 c 1.271,0 2.311,1.041 2.311,2.311 0,1.27 -1.04,2.31 -2.311,2.31 m 18.709,-9.24 -23.883,0 c -1.271,0 -2.31,-1.04 -2.31,-2.311 0,-1.27 1.039,-2.31 2.31,-2.31 l 23.883,0 c 1.271,0 2.31,1.04 2.31,2.31 0,1.271 -1.039,2.311 -2.31,2.311 m 41.791,0 -34.522,0 c -1.269,0 -2.309,-1.04 -2.309,-2.311 0,-1.27 1.04,-2.31 2.309,-2.31 l 34.522,0 c 1.271,0 2.311,1.04 2.311,2.31 0,1.271 -1.04,2.311 -2.311,2.311 m -24.893,-9.242 -14.296,0 c -1.27,0 -2.311,-1.039 -2.311,-2.311 0,-1.269 1.041,-2.308 2.311,-2.308 l 14.296,0 c 1.271,0 2.311,1.039 2.311,2.309 0,1.271 -1.04,2.31 -2.311,2.31 m -21.51,0 -6.269,0 c -1.271,0 -2.31,-1.039 -2.31,-2.311 0,-1.269 1.039,-2.308 2.31,-2.308 l 6.269,0 c 1.272,0 2.31,1.039 2.31,2.309 0,1.271 -1.038,2.31 -2.31,2.31 m 39.541,-12.071 c -2.909,0 -5.261,-2.353 -5.261,-5.261 0,-2.905 2.352,-5.258 5.261,-5.258 2.905,0 5.258,2.353 5.258,5.258 0,2.908 -2.353,5.261 -5.258,5.261 m 94.042,0 c -2.906,0 -5.258,-2.353 -5.258,-5.261 0,-2.905 2.352,-5.258 5.258,-5.258 2.908,0 5.26,2.353 5.26,5.258 0,2.908 -2.352,5.261 -5.26,5.261 M 66.522,35.377 C 56.948,42.88 37.975,53.424 29.399,53.424 l -2.584,0 0,-33.045 c 0,-0.965 1.467,-0.965 1.467,0 l 0,10.738 35.107,0 0,3.051 c 0,0.664 0.545,1.209 1.211,1.209 l 1.922,0 z m -34.295,-7.945 7.389,0 c 1.068,0 0.908,-1.178 0.908,-1.803 0,-0.499 -0.408,-0.908 -0.908,-0.908 l -7.389,0 c -1.066,0 -0.91,1.177 -0.91,1.803 0,0.499 0.41,0.908 0.91,0.908"
             style="fill:#000000;fill-opacity:1;fill-rule:evenodd;stroke:none"
             id="path92"
             inkscape:connector-curvature="0" /></g></g></g><text
       transform="matrix(1,0,0,-1,158.8301,85.7666)"
       style="font-variant:normal;font-weight:normal;font-stretch:normal;font-size:55.98059845px;font-family:'Titillium Web';-inkscape-font-specification:TitilliumWeb-Regular;writing-mode:lr-tb;fill:#000000;fill-opacity:1;fill-rule:nonzero;stroke:none"
       id="text94"><tspan
         x="0 29.445795 57.492077 83.523056 103.17225 139.27974 167.54994 180.48146 192.74121 219.66788 247.93808 267.30737"
         y="0"
         sodipodi:role="line"
         id="tspan96">FastDelivery</tspan></text>
<text
       transform="matrix(1,0,0,-1,254.1514,71.1074)"
       style="font-variant:normal;font-weight:normal;font-stretch:normal;font-size:10.51809978px;font-family:'Titillium Web';-inkscape-font-specification:TitilliumWeb-Regular;writing-mode:lr-tb;fill:#000000;fill-opacity:1;fill-rule:nonzero;stroke:none"
       id="text98"><tspan
         x="0 6.7736564 14.767412 24.654427 31.94347 39.264069 47.426113 54.136662 57.502453 64.086784 71.407379 78.938339 85.02832 88.66758 96.829628"
         y="0"
         sodipodi:role="line"
         id="tspan100">COMPANY TAGLINE</tspan></text>
</g></svg>